<svg width="64" height="64" viewBox="0 0 64 64" fill="none" xmlns="http://www.w3.org/2000/svg">
<rect width="64" height="64" rx="16" fill="#101828" fill-opacity="0.6"/>
<path fill-rule="evenodd" clip-rule="evenodd" d="M36.5859 12.5858C37.367 11.8047 38.633 11.8047 39.4141 12.5858C40.0688 13.2405 40.1725 14.2348 39.7295 14.9998H58C59.6568 14.9998 61 16.343 61 17.9998V38.9998C61 40.6567 59.6569 41.9998 58 41.9998H57V42.9998C57 44.6567 55.6569 45.9998 54 45.9998H53V46.9998C53 48.6567 51.6569 49.9998 50 49.9998H30C30 51.1044 29.1046 51.9998 28 51.9998C26.8954 51.9998 26 51.1044 26 49.9998H7C5.34315 49.9998 4 48.6567 4 46.9998V25.9998C4.00003 24.343 5.34317 22.9998 7 22.9998H8V21.9998C8.00003 20.343 9.34316 18.9998 11 18.9998H12V17.9998C12 16.343 13.3432 14.9998 15 14.9998H34.1719L36.5859 12.5858ZM7 24.9998C6.44774 24.9998 6.00003 25.4476 6 25.9998V46.9998C6 47.5521 6.44772 47.9998 7 47.9998H26V24.9998H7ZM30 24.9998V47.9998H50C50.5523 47.9998 51 47.5521 51 46.9998V25.9998C51 25.4476 50.5523 24.9998 50 24.9998H30ZM33.8281 20.9998L31.8281 22.9998H50C51.6568 22.9998 53 24.343 53 25.9998V43.9998H54C54.5523 43.9998 55 43.5521 55 42.9998V21.9998C55 21.4476 54.5523 20.9998 54 20.9998H33.8281ZM37.8281 16.9998L35.8281 18.9998H54C55.6568 18.9998 57 20.343 57 21.9998V39.9998H58C58.5523 39.9998 59 39.5521 59 38.9998V17.9998C59 17.4476 58.5523 16.9998 58 16.9998H37.8281ZM11 20.9998C10.4477 20.9998 10 21.4476 10 21.9998V22.9998H26.1719L28.1719 20.9998H11ZM15 16.9998C14.4477 16.9998 14 17.4476 14 17.9998V18.9998H30.1719L32.1719 16.9998H15Z" fill="white"/>
</svg>
