<svg width="96" height="96" viewBox="0 0 96 96" fill="none" xmlns="http://www.w3.org/2000/svg">
<path fill-rule="evenodd" clip-rule="evenodd" d="M48.0025 14C29.2234 14 14 29.2234 14 48.0025C14 66.7815 29.2234 82.005 48.0025 82.005C54.2365 82.005 60.0703 80.33 65.0881 77.4076C66.5199 76.5738 68.3565 77.0584 69.1903 78.4902C70.0242 79.9219 69.5395 81.7585 68.1078 82.5924C62.198 86.0343 55.3258 88.005 48.0025 88.005C25.9097 88.005 8 70.0952 8 48.0025C8 25.9097 25.9097 8 48.0025 8C70.0952 8 88.005 25.9097 88.005 48.0025C88.005 53.352 86.9533 58.4634 85.0426 63.1356C84.4154 64.6691 82.6638 65.4039 81.1302 64.7768C79.5967 64.1496 78.8619 62.398 79.489 60.8644C81.11 56.9007 82.005 52.5598 82.005 48.0025C82.005 29.2234 66.7815 14 48.0025 14ZM48.0027 51.0024C46.3458 51.0024 45.0027 49.6593 45.0027 48.0024V27.8193C45.0027 26.1624 46.3458 24.8193 48.0027 24.8193C49.6595 24.8193 51.0027 26.1624 51.0027 27.8193V48.0024C51.0027 49.6593 49.6595 51.0024 48.0027 51.0024ZM44.6387 61.4579C44.6387 59.6001 46.1448 58.0941 48.0026 58.0941C49.8604 58.0941 51.3665 59.6001 51.3665 61.4579C51.3665 63.3157 49.8604 64.8218 48.0026 64.8218C46.1448 64.8218 44.6387 63.3157 44.6387 61.4579Z" fill="#F04438"/>
</svg>
