<svg width="32" height="32" viewBox="0 0 32 32" fill="none" xmlns="http://www.w3.org/2000/svg">
<path fill-rule="evenodd" clip-rule="evenodd" d="M16.0009 4.66667C9.74122 4.66667 4.66675 9.74114 4.66675 16.0008C4.66675 22.2605 9.74122 27.335 16.0009 27.335C18.0789 27.335 20.0235 26.7767 21.6961 25.8025C22.1734 25.5246 22.7856 25.6861 23.0635 26.1634C23.3415 26.6406 23.1799 27.2528 22.7027 27.5308C20.7327 28.6781 18.442 29.335 16.0009 29.335C8.63665 29.335 2.66675 23.3651 2.66675 16.0008C2.66675 8.63657 8.63665 2.66667 16.0009 2.66667C23.3652 2.66667 29.3351 8.63657 29.3351 16.0008C29.3351 17.784 28.9845 19.4878 28.3476 21.0452C28.1386 21.5564 27.5547 21.8013 27.0435 21.5923C26.5323 21.3832 26.2874 20.7993 26.4964 20.2881C27.0367 18.9669 27.3351 17.5199 27.3351 16.0008C27.3351 9.74114 22.2606 4.66667 16.0009 4.66667ZM11.8049 11.8047C12.1954 11.4142 12.8286 11.4142 13.2191 11.8047L16.0005 14.5861L18.7819 11.8048C19.1724 11.4143 19.8056 11.4143 20.1961 11.8048C20.5866 12.1953 20.5866 12.8285 20.1961 13.219L17.4148 16.0004L20.1961 18.7817C20.5867 19.1723 20.5867 19.8054 20.1961 20.196C19.8056 20.5865 19.1724 20.5865 18.7819 20.196L16.0005 17.4146L13.2191 20.196C12.8286 20.5865 12.1954 20.5865 11.8049 20.196C11.4144 19.8055 11.4144 19.1723 11.8049 18.7818L14.5863 16.0004L11.8049 13.2189C11.4144 12.8284 11.4144 12.1953 11.8049 11.8047Z" fill="white"/>
</svg>
