<svg width="64" height="64" viewBox="0 0 64 64" fill="none" xmlns="http://www.w3.org/2000/svg">
<rect width="64" height="64" rx="16" fill="#101828" fill-opacity="0.6"/>
<path d="M44.1055 8.82446C45.7621 8.82469 47.1055 10.1677 47.1055 11.8245V46.5784C47.1055 48.2351 45.7621 49.5781 44.1055 49.5784H43.8066V49.8762C43.8066 51.5331 42.4635 52.8762 40.8066 52.8762H40.5088V53.175C40.5087 54.8317 39.1655 56.1749 37.5088 56.175H20.8945C19.2378 56.1749 17.8946 54.8317 17.8945 53.175V18.4211C17.8945 16.7644 19.2378 15.4213 20.8945 15.4211H21.1924V15.1223C21.1926 13.4658 22.5358 12.1225 24.1924 12.1223H24.4912V11.8245C24.4912 10.1677 25.8345 8.82458 27.4912 8.82446H44.1055ZM20.8945 17.4211C20.3423 17.4213 19.8945 17.8689 19.8945 18.4211V53.175C19.8946 53.7272 20.3424 54.1749 20.8945 54.175H37.5088C38.0609 54.1749 38.5087 53.7272 38.5088 53.175V18.4211C38.5088 17.8689 38.061 17.4213 37.5088 17.4211H20.8945ZM24.1924 14.1223C23.6404 14.1225 23.1926 14.5703 23.1924 15.1223V15.4211H37.5088C39.1655 15.4213 40.5088 16.7644 40.5088 18.4211V50.8762H40.8066C41.3589 50.8762 41.8066 50.4285 41.8066 49.8762V15.1223C41.8064 14.5702 41.3588 14.1223 40.8066 14.1223H24.1924ZM27.4912 10.8245C26.939 10.8246 26.4912 11.2723 26.4912 11.8245V12.1223H40.8066C42.4634 12.1223 43.8064 13.4656 43.8066 15.1223V47.5784H44.1055C44.6576 47.5781 45.1055 47.1305 45.1055 46.5784V11.8245C45.1055 11.2723 44.6576 10.8247 44.1055 10.8245H27.4912Z" fill="white"/>
</svg>
