<svg width="64" height="64" viewBox="0 0 64 64" fill="none" xmlns="http://www.w3.org/2000/svg">
<rect width="64" height="64" rx="16" fill="#101828" fill-opacity="0.6"/>
<path fill-rule="evenodd" clip-rule="evenodd" d="M25.1035 13.0018C25.1038 10.9545 27.1094 9.50898 29.0518 10.1561L49.2588 16.8915C50.4838 17.2998 51.3105 18.4469 51.3105 19.7381V51.8319C51.3105 53.3653 50.1848 54.56 48.8037 54.7919C48.654 54.8812 48.4799 54.9344 48.293 54.9344H16C14.3433 54.9344 13.0002 53.5911 13 51.9344V20.2967C13 18.6399 14.3431 17.2967 16 17.2967H25.1035V13.0018ZM16 19.2967C15.4477 19.2967 15 19.7445 15 20.2967V51.9344C15.0002 52.4865 15.4479 52.9344 16 52.9344H42.1318L27.1553 47.9422C25.9304 47.5339 25.1037 46.3877 25.1035 45.0965V19.2967H16ZM28.4199 12.0536C27.7725 11.8378 27.1038 12.3195 27.1035 13.0018V45.0965C27.1037 45.5267 27.379 45.9087 27.7871 46.0448L47.9941 52.7801C48.6416 52.9959 49.3105 52.5144 49.3105 51.8319V19.7381C49.3105 19.3078 49.0351 18.9251 48.627 18.7889L28.4199 12.0536Z" fill="white"/>
</svg>
