<svg width="169" height="153" viewBox="0 0 169 153" fill="none" xmlns="http://www.w3.org/2000/svg">
    <rect x="16.4307" y="21.345" width="128" height="128" rx="64" fill="#12B76A"/>
    <rect x="16.4307" y="21.345" width="128" height="128" rx="64" stroke="white" stroke-width="6"/>
    <path fill-rule="evenodd" clip-rule="evenodd" d="M91.11 61.3767C85.9414 59.0737 80.1668 58.5032 74.6475 59.7502C69.1282 60.9972 64.1598 63.995 60.4834 68.2964C56.807 72.5978 54.6195 77.9724 54.2472 83.6185C53.8749 89.2647 55.3377 94.88 58.4175 99.6269C61.4972 104.374 66.029 107.998 71.3368 109.959C76.6446 111.92 82.444 112.113 87.8703 110.508C93.2965 108.904 98.0588 105.588 101.447 101.056C104.835 96.5243 106.667 91.0185 106.67 85.3601V82.7119C106.67 81.2981 107.816 80.1519 109.23 80.1519C110.644 80.1519 111.79 81.2981 111.79 82.7119V85.3615C111.786 92.1241 109.597 98.7056 105.548 104.122C101.498 109.538 95.807 113.501 89.322 115.418C82.837 117.336 75.9059 117.105 69.5624 114.762C63.2189 112.418 57.803 108.087 54.1223 102.414C50.4416 96.7405 48.6933 90.0296 49.1383 83.2817C49.5832 76.5338 52.1976 70.1105 56.5913 64.9698C60.9851 59.8291 66.9229 56.2464 73.5192 54.7561C80.1154 53.2658 87.0167 53.9476 93.1938 56.7C94.4853 57.2754 95.0657 58.7888 94.4903 60.0803C93.9149 61.3717 92.4014 61.9521 91.11 61.3767Z" fill="white"/>
    <path fill-rule="evenodd" clip-rule="evenodd" d="M111.04 60.5105C112.04 61.5097 112.041 63.1306 111.042 64.1309L82.2416 92.9596C81.7616 93.4401 81.1103 93.7102 80.4311 93.7104C79.7519 93.7105 79.1005 93.4408 78.6203 92.9606L69.9803 84.3206C68.9805 83.3208 68.9805 81.6999 69.9803 80.7002C70.98 79.7004 72.6009 79.7004 73.6007 80.7002L80.4296 87.5291L107.419 60.5123C108.419 59.512 110.04 59.5112 111.04 60.5105Z" fill="white"/>
    <circle cx="153.32" cy="48.0117" r="5.33333" fill="#12B76A"/>
    <circle cx="148.876" cy="111.123" r="2.66667" fill="#12B76A"/>
    <path d="M7.10096 90.3906C7.23098 89.9514 7.85309 89.9514 7.98312 90.3906L9.6917 96.1623C9.72925 96.2892 9.8196 96.3937 9.93967 96.4493L14.8172 98.7053C15.173 98.8699 15.173 99.3757 14.8172 99.5403L9.93967 101.796C9.8196 101.852 9.72925 101.956 9.6917 102.083L7.98312 107.855C7.85309 108.294 7.23098 108.294 7.10096 107.855L5.39237 102.083C5.35482 101.956 5.26447 101.852 5.1444 101.796L0.266883 99.5403C-0.0889672 99.3757 -0.0889676 98.8699 0.266883 98.7053L5.1444 96.4493C5.26447 96.3937 5.35482 96.2892 5.39237 96.1623L7.10096 90.3906Z" fill="#34C759"/>
    <path d="M156.204 0.501308C156.402 -0.167098 157.348 -0.167099 157.546 0.501307L160.146 9.28438C160.203 9.47742 160.341 9.6365 160.524 9.72102L167.946 13.1541C168.488 13.4046 168.488 14.1743 167.946 14.4248L160.524 17.8579C160.341 17.9424 160.203 18.1015 160.146 18.2946L157.546 27.0776C157.348 27.746 156.402 27.746 156.204 27.0776L153.604 18.2946C153.547 18.1015 153.409 17.9424 153.227 17.8579L145.804 14.4248C145.263 14.1743 145.263 13.4046 145.804 13.1541L153.227 9.72102C153.409 9.6365 153.547 9.47742 153.604 9.28438L156.204 0.501308Z" fill="#34C759"/>
</svg>
