<svg width="32" height="32" viewBox="0 0 32 32" fill="none" xmlns="http://www.w3.org/2000/svg">
    <path d="M15.9998 29.3333C23.3636 29.3333 29.3332 23.3638 29.3332 16C29.3332 8.63619 23.3636 2.66666 15.9998 2.66666C8.63604 2.66666 2.6665 8.63619 2.6665 16C2.6665 23.3638 8.63604 29.3333 15.9998 29.3333Z" fill="#D9D9D9"/>
    <g clip-path="url(#clip0_656_2592)">
        <path fill-rule="evenodd" clip-rule="evenodd" d="M11.6486 11.6395C11.974 11.3141 12.5017 11.3141 12.8271 11.6395L16.0091 14.8215L19.191 11.6395C19.5165 11.3141 20.0441 11.3141 20.3696 11.6395C20.695 11.9649 20.695 12.4926 20.3696 12.818L17.1876 16L20.3696 19.182C20.695 19.5074 20.695 20.0351 20.3696 20.3605C20.0441 20.6859 19.5165 20.6859 19.191 20.3605L16.0091 17.1785L12.8271 20.3605C12.5017 20.6859 11.974 20.6859 11.6486 20.3605C11.3231 20.0351 11.3231 19.5074 11.6486 19.182L14.8306 16L11.6486 12.818C11.3231 12.4926 11.3231 11.9649 11.6486 11.6395Z" fill="white"/>
    </g>
    <defs>
        <clipPath id="clip0_656_2592">
            <rect width="16" height="16" fill="white" transform="translate(8 8)"/>
        </clipPath>
    </defs>
</svg>
