<svg width="28" height="28" viewBox="0 0 28 28" fill="none" xmlns="http://www.w3.org/2000/svg">
    <path fill-rule="evenodd" clip-rule="evenodd" d="M6.13333 0C5.54423 0 5.06667 0.477563 5.06667 1.06667V8.86667H3.6C2.64522 8.86667 1.72955 9.24595 1.05442 9.92108C0.379285 10.5962 0 11.5119 0 12.4667V18.8C0 19.7548 0.379285 20.6705 1.05442 21.3456C1.72955 22.0207 2.64522 22.4 3.6 22.4H5.06667V26.4C5.06667 26.9891 5.54423 27.4667 6.13333 27.4667H21.3333C21.9224 27.4667 22.4 26.9891 22.4 26.4C22.4 25.8109 21.9224 25.3333 21.3333 25.3333H20.2667H7.2V21.3333V17.3333H20.2667V21.3333C20.2667 21.9224 20.7442 22.4 21.3333 22.4H22.4H23.7333H23.8667C24.8214 22.4 25.7371 22.0207 26.4123 21.3456C27.0874 20.6705 27.4667 19.7548 27.4667 18.8V12.4667C27.4667 11.5119 27.0874 10.5962 26.4123 9.92108C25.7371 9.24595 24.8214 8.86667 23.8667 8.86667H22.4V1.06667C22.4 0.477563 21.9224 0 21.3333 0H6.13333ZM3.6 11H6.13333H21.3333H23.8667C24.2556 11 24.6287 11.1545 24.9038 11.4296C25.1788 11.7046 25.3333 12.0777 25.3333 12.4667V18.8C25.3333 19.189 25.1788 19.562 24.9038 19.8371C24.6287 20.1121 24.2556 20.2667 23.8667 20.2667H22.4V16.2667C22.4 15.6776 21.9224 15.2 21.3333 15.2H6.13333C5.54423 15.2 5.06667 15.6776 5.06667 16.2667V20.2667H3.6C3.21102 20.2667 2.83796 20.1121 2.56291 19.8371C2.28786 19.562 2.13333 19.189 2.13333 18.8V12.4667C2.13333 12.0777 2.28786 11.7046 2.56291 11.4296C2.83796 11.1545 3.21102 11 3.6 11ZM7.2 8.86667H20.2667V2.13333H7.2V8.86667Z" fill="white"/>
</svg>
