<svg width="64" height="64" viewBox="0 0 64 64" fill="none" xmlns="http://www.w3.org/2000/svg">
<rect width="64" height="64" rx="16" fill="#101828" fill-opacity="0.6"/>
<path fill-rule="evenodd" clip-rule="evenodd" d="M35.1409 21.0083C35.8926 20.2463 36.9122 19.8182 37.9753 19.8182C39.0384 19.8182 40.058 20.2463 40.8097 21.0083C41.5614 21.7703 41.9838 22.8039 41.9838 23.8815C41.9838 24.9592 41.5614 25.9927 40.8097 26.7547L28.4006 39.3201C28.1551 39.569 27.8215 39.7094 27.4743 39.7094C27.1271 39.7094 26.7941 39.5696 26.5486 39.3207C26.3031 39.0718 26.1651 38.7342 26.1651 38.3823C26.1651 38.0303 26.3031 37.6927 26.5486 37.4438L37.9999 25.8493C38.5431 25.2993 38.5436 24.4072 38.0011 23.8566C37.4586 23.3059 36.5784 23.3054 36.0353 23.8554L24.5833 35.4505C23.8164 36.2279 23.385 37.2829 23.385 38.3823C23.385 39.4817 23.8158 40.536 24.5827 41.3134C25.3496 42.0908 26.3898 42.5276 27.4743 42.5276C28.5586 42.5276 29.5985 42.091 30.3654 41.314L42.775 28.748C44.0481 27.4575 44.7639 25.7066 44.7639 23.8815C44.7639 22.0564 44.0486 20.3061 42.7755 19.0156C41.5024 17.725 39.7757 17 37.9753 17C36.1749 17 34.4482 17.725 33.1751 19.0156L20.7789 31.5815C18.9996 33.3852 18 35.8315 18 38.3823C18 40.933 18.9996 43.3794 20.7789 45.183C22.5582 46.9867 24.9715 48 27.4878 48C29.4284 48 31.3077 47.3973 32.8822 46.2942C33.5272 45.8424 33.5362 44.9273 32.9832 44.3667C32.4481 43.8242 31.5844 43.8212 30.9329 44.2165C29.9004 44.8429 28.7114 45.1818 27.4878 45.1818C25.7088 45.1818 24.0027 44.4654 22.7447 43.1903C21.4868 41.9151 20.7801 40.1856 20.7801 38.3823C20.7801 36.5789 21.4868 34.8494 22.7447 33.5742L35.1409 21.0083ZM35.4536 39.9234C34.916 40.4683 34.916 41.3441 35.4536 41.889C36.0016 42.4446 36.8982 42.4446 37.4462 41.889L46.5929 32.6171C47.1357 32.0668 47.1357 31.1746 46.5929 30.6243C46.05 30.0741 45.1699 30.0741 44.627 30.6243L35.4536 39.9234Z" fill="white"/>
</svg>
