<svg width="103" height="105" viewBox="0 0 103 105" fill="none" xmlns="http://www.w3.org/2000/svg">
    <path fill-rule="evenodd" clip-rule="evenodd" d="M52.0831 0.00214169C53.7014 -0.034869 55.2945 0.40853 56.661 1.27634C58.0275 2.14415 59.1061 3.39747 59.7608 4.87797C60.4154 6.35846 60.6166 7.99973 60.339 9.59452C60.0614 11.1893 59.3174 12.6661 58.201 13.8383C57.0846 15.0105 55.6459 15.8256 54.0665 16.1806C52.4872 16.5356 50.8381 16.4147 49.3274 15.833C47.8168 15.2513 46.5123 14.235 45.5789 12.9125C44.6455 11.5899 44.125 10.0204 44.0831 8.40214C44.0538 7.32454 44.2379 6.25178 44.6246 5.24555C45.0113 4.23932 45.5932 3.31947 46.3366 2.53885C47.0801 1.75824 47.9705 1.13227 48.9567 0.696935C49.9429 0.261598 51.0053 0.0254661 52.0831 0.00214169Z" fill="white"/>
    <path fill-rule="evenodd" clip-rule="evenodd" d="M23.2726 9.00213C24.5593 8.17625 26.0619 7.75046 27.5905 7.77859C29.1191 7.80673 30.6051 8.28754 31.8605 9.16021C33.1158 10.0329 34.0842 11.2582 34.6432 12.6813C35.2021 14.1043 35.3266 15.6612 35.0007 17.1549C34.6748 18.6487 33.9132 20.0123 32.8124 21.0732C31.7115 22.1342 30.3207 22.8448 28.816 23.1153C27.3112 23.3858 25.76 23.204 24.3586 22.5929C22.9571 21.9818 21.7684 20.9689 20.9426 19.6821C19.8355 17.9569 19.459 15.8625 19.8959 13.8596C20.3329 11.8568 21.5475 10.1095 23.2726 9.00213Z" fill="white"/>
    <path fill-rule="evenodd" clip-rule="evenodd" d="M3.86281 32.1422C4.45583 30.8355 5.42283 29.7338 6.64162 28.9763C7.8604 28.2188 9.27635 27.8395 10.7106 27.8863C12.1448 27.9331 13.533 28.4039 14.6998 29.2392C15.8667 30.0744 16.7598 31.2368 17.2664 32.5794C17.773 33.922 17.8704 35.3846 17.5462 36.7825C17.2221 38.1804 16.4909 39.4509 15.4451 40.4335C14.3993 41.4161 13.0857 42.0667 11.6704 42.3032C10.255 42.5397 8.80125 42.3514 7.49281 41.7622C6.62188 41.37 5.83692 40.8097 5.18288 40.1136C4.52883 39.4175 4.01856 38.5992 3.68135 37.7055C3.34413 36.8119 3.18659 35.8604 3.21773 34.9058C3.24886 33.9511 3.46807 33.012 3.86281 32.1422Z" fill="white"/>
    <path fill-rule="evenodd" clip-rule="evenodd" d="M0.0528723 61.6721C-0.114476 60.338 0.117499 58.9841 0.719437 57.7817C1.32138 56.5794 2.26629 55.5824 3.43471 54.917C4.60312 54.2515 5.94261 53.9474 7.28383 54.0431C8.62505 54.1387 9.90779 54.6299 10.9699 55.4544C12.0321 56.279 12.8259 57.3999 13.2511 58.6756C13.6763 59.9512 13.7137 61.3243 13.3587 62.6212C13.0037 63.9181 12.2722 65.0806 11.2566 65.9619C10.241 66.8431 8.98692 67.4035 7.65291 67.5721C5.86302 67.7957 4.05749 67.3001 2.63265 66.194C1.2078 65.0878 0.279996 63.4616 0.0528723 61.6721Z" fill="white"/>
    <path fill-rule="evenodd" clip-rule="evenodd" d="M12.763 88.5521C11.9475 87.6004 11.4319 86.4287 11.281 85.1845C11.1302 83.9403 11.3509 82.6793 11.9154 81.5603C12.4798 80.4413 13.3629 79.5144 14.4531 78.8963C15.5434 78.2782 16.7922 77.9965 18.0423 78.0868C19.2923 78.1771 20.4877 78.6353 21.4779 79.4036C22.468 80.172 23.2086 81.2162 23.6065 82.4047C24.0043 83.5932 24.0415 84.8728 23.7135 86.0824C23.3854 87.292 22.7067 88.3775 21.763 89.2022C21.1311 89.7542 20.3961 90.1756 19.6005 90.4419C18.8048 90.7082 17.9643 90.8143 17.1274 90.7539C16.2905 90.6934 15.474 90.4677 14.7249 90.0898C13.9757 89.7119 13.3089 89.1893 12.763 88.5521Z" fill="white"/>
    <path fill-rule="evenodd" clip-rule="evenodd" d="M37.7228 104.102C36.5994 103.784 35.5956 103.14 34.8384 102.252C34.0811 101.364 33.6045 100.27 33.4687 99.1108C33.333 97.9513 33.5443 96.7777 34.0759 95.7383C34.6075 94.699 35.4354 93.8407 36.455 93.2721C37.4746 92.7035 38.6399 92.4501 39.8036 92.544C40.9672 92.638 42.0768 93.075 42.9919 93.7998C43.9071 94.5247 44.5865 95.5046 44.9445 96.6158C45.3024 97.727 45.3227 98.9194 45.0027 100.042C44.572 101.543 43.5646 102.813 42.2004 103.574C40.8363 104.335 39.2264 104.525 37.7228 104.102Z" fill="white"/>
    <path fill-rule="evenodd" clip-rule="evenodd" d="M66.7131 103.662C65.6783 103.957 64.5792 103.939 63.5548 103.609C62.5304 103.28 61.6267 102.654 60.9582 101.811C60.2896 100.968 59.8861 99.9451 59.7987 98.8725C59.7114 97.8 59.944 96.7256 60.4673 95.7854C60.9906 94.8451 61.7811 94.0811 62.7386 93.5901C63.6962 93.0991 64.7778 92.9032 65.8468 93.027C66.9157 93.1508 67.9239 93.5889 68.7439 94.2858C69.5638 94.9827 70.1586 95.9071 70.4531 96.9422C70.6499 97.629 70.7091 98.3479 70.6276 99.0576C70.546 99.7674 70.3252 100.454 69.9778 101.078C69.6304 101.703 69.1631 102.252 68.6029 102.696C68.0427 103.139 67.4005 103.467 66.7131 103.662Z" fill="white"/>
    <path fill-rule="evenodd" clip-rule="evenodd" d="M90.773 87.6521C90.1299 88.4075 89.2766 88.9545 88.3218 89.2235C87.3669 89.4926 86.3535 89.4715 85.4107 89.1629C84.4678 88.8544 83.638 88.2723 83.027 87.4908C82.4159 86.7093 82.0511 85.7636 81.979 84.7742C81.907 83.7848 82.1308 82.7963 82.6222 81.9345C83.1135 81.0727 83.8501 80.3764 84.7383 79.9345C85.6265 79.4925 86.626 79.3248 87.6098 79.4525C88.5936 79.5803 89.5172 79.9979 90.263 80.6521C91.2502 81.5181 91.8571 82.7378 91.9526 84.0476C92.048 85.3574 91.6243 86.6522 90.773 87.6521Z" fill="white"/>
    <path fill-rule="evenodd" clip-rule="evenodd" d="M102.253 61.3821C102.139 62.2687 101.765 63.1015 101.178 63.7753C100.59 64.4492 99.8164 64.9338 98.9538 65.1679C98.0912 65.402 97.1785 65.3751 96.3312 65.0905C95.4838 64.806 94.7399 64.2767 94.1934 63.5694C93.6468 62.8621 93.3223 62.0087 93.2607 61.117C93.1992 60.2253 93.4033 59.3353 93.8475 58.5597C94.2916 57.784 94.9558 57.1574 95.756 56.7591C96.5562 56.3609 97.4565 56.2088 98.3431 56.3221C98.9332 56.3949 99.5031 56.5839 100.02 56.8782C100.536 57.1725 100.99 57.5663 101.353 58.0368C101.717 58.5073 101.983 59.0452 102.138 59.6194C102.292 60.1936 102.332 60.7927 102.253 61.3821Z" fill="white"/>
    <path fill-rule="evenodd" clip-rule="evenodd" d="M97.7927 33.4622C98.1274 34.1922 98.238 35.0052 98.1106 35.7981C97.9832 36.591 97.6235 37.3284 97.0769 37.9168C96.5304 38.5053 95.8217 38.9185 95.0403 39.1041C94.259 39.2897 93.4401 39.2394 92.6873 38.9596C91.9345 38.6797 91.2816 38.1829 90.8113 37.532C90.3409 36.881 90.0741 36.1052 90.0447 35.3026C90.0153 34.5001 90.2246 33.7068 90.6461 33.0232C91.0676 32.3396 91.6824 31.7963 92.4127 31.4622C93.3921 31.0198 94.5065 30.9817 95.5138 31.3562C96.5212 31.7306 97.3401 32.4874 97.7927 33.4622Z" fill="white"/>
    <path fill-rule="evenodd" clip-rule="evenodd" d="M79.0729 12.5121C79.6683 12.9 80.1356 13.4554 80.4159 14.1083C80.6962 14.7612 80.777 15.4825 80.6481 16.1813C80.5193 16.88 80.1865 17.5251 79.6918 18.0351C79.197 18.5451 78.5624 18.8973 77.8679 19.0473C77.1734 19.1973 76.4499 19.1385 75.7888 18.8781C75.1277 18.6178 74.5583 18.1676 74.1526 17.5843C73.7468 17.001 73.5227 16.3107 73.5085 15.6003C73.4944 14.8899 73.6907 14.1911 74.0729 13.5921C74.3288 13.1911 74.6615 12.8448 75.052 12.5732C75.4424 12.3016 75.8828 12.11 76.3478 12.0096C76.8127 11.9092 77.2929 11.9019 77.7606 11.9881C78.2284 12.0744 78.6744 12.2525 79.0729 12.5121Z" fill="white"/>
</svg>
