<svg width="248" height="36" viewBox="0 0 248 36" fill="none" xmlns="http://www.w3.org/2000/svg">
<path d="M74.7998 12H70.0998V35.8001H74.7998V12Z" fill="white"/>
<path d="M27.9001 12.6006L14.5 35.8007H41.3001L27.9001 12.6006Z" fill="#EC2227"/>
<path d="M0 35.8009H14.5L7.20002 23.3008L0 35.8009Z" fill="#EC2227"/>
<path d="M9.79983 18.7L15.6998 29.0001L26.4999 10.3L20.5999 0L9.79983 18.7Z" fill="#EC2227"/>
<path d="M54.4001 29.9001L45.4001 12H40.0001L52.0001 35.8001H56.7001L68.7002 12H63.3002L54.4001 29.9001Z" fill="white"/>
<path d="M130.3 12L118.4 35.8001H123.7L126.5 30.2001H138.9L141.7 35.8001H147L135.1 12H130.3ZM128.5 26.3001L132.7 17.9L136.9 26.3001H128.5Z" fill="white"/>
<path d="M183 12L171.1 35.8001H176.4L179.2 30.2001H191.6L194.4 35.8001H199.7L187.8 12H183ZM181.2 26.3001L185.4 17.9L189.6 26.3001H181.2Z" fill="white"/>
<path d="M82.7998 25.5001H95.0998V21.5001H82.7998V16H95.8998V12H78.0998V35.8001H96.3998V31.8001H82.7998V25.5001Z" fill="white"/>
<path d="M98.1995 16H105.399V35.8001H110.199V16H117.3V12H98.1995V16Z" fill="white"/>
<path d="M151.8 12H161.3C163.2 12 164.6 12.1 165.5 12.2C166.4 12.4 167.3 12.7 168 13.2C168.7 13.7 169.3 14.4 169.8 15.2C170.3 16 170.5 17 170.5 18C170.5 19.1 170.2 20.1 169.6 21.1001C169 22.0001 168.2 22.7001 167.2 23.2001C168.6 23.6001 169.8 24.3001 170.5 25.4001C171.3 26.4001 171.7 27.6001 171.7 29.0001C171.7 30.1001 171.4 31.1001 170.9 32.2001C170.4 33.2001 169.7 34.0001 168.8 34.6001C167.9 35.2001 166.9 35.6001 165.6 35.7001C164.8 35.8001 162.9 35.8001 159.8 35.9001H151.7V12H151.8ZM156.6 16V21.5001H159.7C161.6 21.5001 162.7 21.5001 163.2 21.4001C164 21.3001 164.7 21.0001 165.1 20.5001C165.6 20 165.8 19.4 165.8 18.6C165.8 17.9 165.6 17.3 165.2 16.8C164.8 16.3 164.2 16.1 163.4 16C162.9 15.9 161.6 15.9 159.3 15.9L156.6 16ZM156.6 25.4001V31.8001H161C162.7 31.8001 163.8 31.8001 164.3 31.7001C165 31.6001 165.6 31.3001 166 30.8001C166.4 30.3001 166.7 29.6001 166.7 28.8001C166.7 28.1001 166.5 27.5001 166.2 27.0001C165.9 26.5001 165.4 26.1001 164.7 25.9001C164 25.7001 162.6 25.6001 160.4 25.6001H156.6V25.4001Z" fill="white"/>
<path d="M247.6 12L238.2 21.4001L248 35.8001H242.2L234.7 24.9001L231.7 27.9001V35.8001H226.9V12H231.7V22.0001L241.7 12H247.6Z" fill="white"/>
<path d="M218.8 27.8001L206 12H201.2V35.8001H206V20.1L218.8 35.8001H223.6V12H218.8V27.8001Z" fill="white"/>
</svg>
