<svg width="128" height="128" viewBox="0 0 128 128" fill="none" xmlns="http://www.w3.org/2000/svg">
    <path d="M49.1429 68.5714C51.8708 68.5714 54.487 69.6551 56.416 71.5841C58.3449 73.513 59.4286 76.1292 59.4286 78.8572V104C59.4286 106.728 58.3449 109.344 56.416 111.273C54.487 113.202 51.8708 114.286 49.1429 114.286H24C21.2721 114.286 18.6559 113.202 16.7269 111.273C14.798 109.344 13.7143 106.728 13.7143 104V78.8572C13.7143 76.1292 14.798 73.513 16.7269 71.5841C18.6559 69.6551 21.2721 68.5714 24 68.5714H49.1429ZM83.8172 68.5714V83.808H99.0492V99.0492H83.8172V114.281H68.5714V99.0446H83.808V83.808H68.5714V68.5714H83.8172ZM114.286 99.0446V114.286H99.0492V99.0492L114.286 99.0446ZM49.1429 75.4286H24C23.0907 75.4286 22.2186 75.7898 21.5756 76.4328C20.9327 77.0758 20.5714 77.9478 20.5714 78.8572V104C20.5714 105.893 22.1074 107.429 24 107.429H49.1429C50.0522 107.429 50.9242 107.067 51.5672 106.424C52.2102 105.781 52.5714 104.909 52.5714 104V78.8572C52.5714 77.9478 52.2102 77.0758 51.5672 76.4328C50.9242 75.7898 50.0522 75.4286 49.1429 75.4286ZM43.4286 84.5714V98.2857H29.7143V84.5714H43.4286ZM114.286 68.5714V83.808H99.0492V68.5714H114.286ZM49.1429 13.7143C51.8708 13.7143 54.487 14.798 56.416 16.7269C58.3449 18.6559 59.4286 21.2721 59.4286 24V49.1429C59.4286 51.8708 58.3449 54.487 56.416 56.416C54.487 58.3449 51.8708 59.4286 49.1429 59.4286H24C21.2721 59.4286 18.6559 58.3449 16.7269 56.416C14.798 54.487 13.7143 51.8708 13.7143 49.1429V24C13.7143 21.2721 14.798 18.6559 16.7269 16.7269C18.6559 14.798 21.2721 13.7143 24 13.7143H49.1429ZM104 13.7143C106.728 13.7143 109.344 14.798 111.273 16.7269C113.202 18.6559 114.286 21.2721 114.286 24V49.1429C114.286 51.8708 113.202 54.487 111.273 56.416C109.344 58.3449 106.728 59.4286 104 59.4286H78.8572C76.1292 59.4286 73.513 58.3449 71.5841 56.416C69.6551 54.487 68.5714 51.8708 68.5714 49.1429V24C68.5714 21.2721 69.6551 18.6559 71.5841 16.7269C73.513 14.798 76.1292 13.7143 78.8572 13.7143H104ZM49.1429 20.5714H24C23.0907 20.5714 22.2186 20.9327 21.5756 21.5756C20.9327 22.2186 20.5714 23.0907 20.5714 24V49.1429C20.5714 51.0354 22.1074 52.5714 24 52.5714H49.1429C50.0522 52.5714 50.9242 52.2102 51.5672 51.5672C52.2102 50.9242 52.5714 50.0522 52.5714 49.1429V24C52.5714 23.0907 52.2102 22.2186 51.5672 21.5756C50.9242 20.9327 50.0522 20.5714 49.1429 20.5714ZM104 20.5714H78.8572C77.9478 20.5714 77.0758 20.9327 76.4328 21.5756C75.7898 22.2186 75.4286 23.0907 75.4286 24V49.1429C75.4286 51.0354 76.9646 52.5714 78.8572 52.5714H104C104.909 52.5714 105.781 52.2102 106.424 51.5672C107.067 50.9242 107.429 50.0522 107.429 49.1429V24C107.429 23.0907 107.067 22.2186 106.424 21.5756C105.781 20.9327 104.909 20.5714 104 20.5714ZM43.4286 29.7143V43.4286H29.7143V29.7143H43.4286ZM98.2857 29.7143V43.4286H84.5714V29.7143H98.2857Z" fill="white"/>
</svg>
