<svg width="64" height="64" viewBox="0 0 64 64" fill="none" xmlns="http://www.w3.org/2000/svg">
<rect width="64" height="64" rx="16" fill="#101828" fill-opacity="0.6"/>
<path fill-rule="evenodd" clip-rule="evenodd" d="M56.7757 16C57.8802 16 58.7757 16.8954 58.7757 18V39C58.7757 40.1046 57.8802 41 56.7757 41H55.7522C55.4475 42.0746 54.5233 42.9147 53.345 43.0566L10.51 48.2129C8.86507 48.4109 7.37113 47.2378 7.17314 45.5928L5.02177 27.7217C4.8239 26.0768 5.99702 24.5828 7.64189 24.3848L11.7757 23.8867V18C11.7757 16.9644 12.563 16.1131 13.5716 16.0107L13.7757 16H56.7757ZM7.88114 26.3701C7.33294 26.4361 6.94233 26.9342 7.0081 27.4824L9.15849 45.3535C9.22447 45.9017 9.72257 46.2934 10.2708 46.2275L53.1067 41.0713C53.1969 41.0604 53.2822 41.0359 53.3606 41H13.7757L13.5716 40.9893C12.563 40.8869 11.7757 40.0356 11.7757 39V25.9014L7.88114 26.3701ZM13.7757 39H56.7757V18H13.7757V39Z" fill="white"/>
</svg>
