<?xml version="1.0" encoding="utf-8"?>
<!-- Generator: Adobe Illustrator 19.2.1, SVG Export Plug-In . SVG Version: 6.00 Build 0)  -->
<svg version="1.1" id="Layer_1" xmlns="http://www.w3.org/2000/svg" xmlns:xlink="http://www.w3.org/1999/xlink" x="0px" y="0px"
	 width="167.8px" height="180.7px" viewBox="0 0 167.8 180.7" style="enable-background:new 0 0 167.8 180.7;" xml:space="preserve"
	>
<style type="text/css">
	.st0{fill:#FFFFFF;}
</style>
<g>
	<path class="st0" d="M167.8,106.3c0,7.8-0.9,15.4-2.8,22.7l-9.3,37.1c-1.1,4.3-3.4,7.8-6.9,10.5c-3.5,2.7-7.5,4.1-11.9,4.1H64.5
		c-4,0-7.9-0.9-11.5-2.8c-3.7-1.8-6.7-4.4-9.1-7.5L5.1,118.8C1.7,114.2,0,109,0,103.2C0,96.2,2.5,90.1,7.5,85c5-5.1,11-7.6,18.1-7.6
		c4.8,0,9.1,1.2,13.1,3.5V25.8c0-7.1,2.5-13.2,7.6-18.2c5-5,11.1-7.6,18.2-7.6c7.2,0,13.3,2.6,18.3,7.8c5,5.2,7.5,11.4,7.5,18.6
		v22.2c1.5-0.1,2.6-0.2,3.2-0.2c6.7,0,12.5,2.3,17.4,7c3.2-1.4,6.5-2.1,10-2.1c7.6,0,13.8,2.9,18.6,8.8c1.8-0.5,3.7-0.7,5.6-0.7
		c6.3,0,11.7,2.3,16,6.8c4.4,4.5,6.6,10,6.6,16.3V106.3z"/>
	<path class="st0" d="M145.2,74.2c-2.7,0-5,0.9-6.9,2.8c-1.9,1.9-2.8,4.2-2.8,6.9h-3.2v-6.1c0-3.2-1.1-6-3.2-8.2
		c-2.2-2.3-4.8-3.4-8.1-3.4c-3.1,0-5.7,1.1-8,3.3s-3.3,4.9-3.3,8v6.5h-3.2v-9.1c0-3.7-1.2-6.9-3.7-9.5c-2.5-2.7-5.5-4-9.2-4
		c-3.6,0-6.6,1.3-9.1,3.8c-2.5,2.5-3.8,5.6-3.8,9.1v9.7h-3.2V26.4c0-3.7-1.2-6.9-3.7-9.5c-2.5-2.7-5.5-4-9.2-4
		c-3.6,0-6.6,1.3-9.1,3.8c-2.5,2.5-3.8,5.6-3.8,9.1v51.6v38.7L36.4,95.8c-2.8-3.6-6.4-5.4-10.8-5.4c-3.5,0-6.5,1.3-9,3.8
		c-2.5,2.6-3.7,5.6-3.7,9.1c0,2.9,0.9,5.5,2.6,7.8l38.7,51.6c2.6,3.4,6,5.1,10.3,5.1h72.4c1.5,0,2.8-0.5,4-1.4
		c1.2-0.9,1.9-2.1,2.3-3.5l9.3-37.1c1.6-6.5,2.4-13,2.4-19.6V84.4c0-2.8-0.9-5.1-2.8-7.2C150.1,75.2,147.9,74.2,145.2,74.2z
		 M77.4,141.9h-3.2v-38.7h3.2V141.9z M103.2,141.9H100v-38.7h3.2V141.9z M129,141.9h-3.2v-38.7h3.2V141.9z"/>
	<rect x="100" y="103.2" width="3.2" height="38.7"/>
	<rect x="74.2" y="103.2" width="3.2" height="38.7"/>
	<rect x="125.8" y="103.2" width="3.2" height="38.7"/>
	<path d="M145.2,61.3c-2,0-3.8,0.2-5.6,0.7c-4.8-5.8-11-8.8-18.6-8.8c-3.5,0-6.8,0.7-10,2.1c-5-4.6-10.8-7-17.4-7
		c-0.7,0-1.7,0.1-3.2,0.2V26.4c0-7.2-2.5-13.4-7.5-18.6C77.8,2.6,71.7,0,64.5,0c-7.1,0-13.2,2.5-18.2,7.6c-5,5-7.6,11.1-7.6,18.2V81
		c-4-2.4-8.3-3.5-13.1-3.5c-7.1,0-13.1,2.5-18.1,7.6C2.5,90.1,0,96.2,0,103.2c0,5.8,1.7,11,5.1,15.5l38.7,51.6
		c2.4,3.2,5.5,5.7,9.1,7.5c3.7,1.8,7.5,2.8,11.5,2.8h72.4c4.4,0,8.4-1.4,11.9-4.1c3.5-2.7,5.8-6.2,6.9-10.5l9.3-37.1
		c1.9-7.3,2.8-14.9,2.8-22.7V84.4c0-6.3-2.2-11.7-6.6-16.3C156.8,63.6,151.5,61.3,145.2,61.3z M154.9,106.3c0,6.6-0.8,13.1-2.4,19.6
		l-9.3,37.1c-0.3,1.4-1.1,2.6-2.3,3.5c-1.2,0.9-2.5,1.4-4,1.4H64.5c-4.3,0-7.7-1.7-10.3-5.1L15.5,111c-1.7-2.3-2.6-4.9-2.6-7.8
		c0-3.5,1.2-6.5,3.7-9.1c2.5-2.6,5.5-3.8,9-3.8c4.4,0,8,1.8,10.8,5.4l15.2,20.4V77.4V25.8c0-3.6,1.3-6.6,3.8-9.1
		c2.5-2.5,5.6-3.8,9.1-3.8c3.6,0,6.7,1.3,9.2,4c2.5,2.7,3.7,5.8,3.7,9.5v57.5h3.2v-9.7c0-3.6,1.3-6.6,3.8-9.1
		c2.5-2.5,5.6-3.8,9.1-3.8c3.6,0,6.7,1.3,9.2,4c2.5,2.7,3.7,5.8,3.7,9.5v9.1h3.2v-6.5c0-3.1,1.1-5.7,3.3-8s4.9-3.3,8-3.3
		c3.2,0,5.9,1.1,8.1,3.4c2.2,2.3,3.2,5,3.2,8.2v6.1h3.2c0-2.7,0.9-5,2.8-6.9c1.9-1.9,4.2-2.8,6.9-2.8c2.7,0,5,1,6.9,3
		c1.9,2,2.8,4.4,2.8,7.2V106.3z"/>
</g>
</svg>
